<?xml version="1.0" encoding="UTF-8" standalone="no"?>
<!--part of the category icon pack by sixsixfive released under CC0 (https://creativecommons.org/publicdomain/zero/1.0/) on openclipart-->
<svg xmlns="http://www.w3.org/2000/svg" xmlns:xlink="http://www.w3.org/1999/xlink" viewBox="0 0 32 32">
 <defs id="0">
  <linearGradient id="U">
   <stop id="v" stop-color="#fff"/>
   <stop id="w" offset="1" stop-color="#fff" stop-opacity="0"/>
  </linearGradient>
  <linearGradient id="V">
   <stop id="x" stop-color="#fce94f"/>
   <stop id="y" offset="1" stop-color="#a28400"/>
  </linearGradient>
  <linearGradient id="W">
   <stop id="z" stop-color="#fce94f"/>
   <stop id="10" offset="1" stop-color="#c4a000"/>
  </linearGradient>
  <linearGradient id="X">
   <stop id="11" stop-color="#888a85"/>
   <stop id="12" offset="1" stop-color="#2e3436"/>
  </linearGradient>
  <linearGradient id="Y">
   <stop id="13" stop-color="#91b2e3"/>
   <stop id="14" offset="1" stop-color="#5287d5"/>
  </linearGradient>
  <linearGradient id="Z">
   <stop id="15" stop-color="#2a456d"/>
   <stop id="16" offset="1" stop-color="#6d8db8"/>
  </linearGradient>
  <linearGradient id="a">
   <stop id="17" stop-color="#babdb6"/>
   <stop id="18" offset="1" stop-color="#2e3436"/>
  </linearGradient>
  <linearGradient id="b">
   <stop id="19" stop-color="#f8a3a3"/>
   <stop id="1A" offset="1" stop-color="#c00"/>
  </linearGradient>
  <linearGradient id="c">
   <stop id="1B" stop-color="#d3d7cf"/>
   <stop id="1C" offset="1" stop-color="#2e3436"/>
  </linearGradient>
  <linearGradient id="d">
   <stop id="1D" stop-color="#555753"/>
   <stop id="1E" offset="1" stop-color="#2e3436"/>
  </linearGradient>
  <linearGradient id="e">
   <stop id="1F" stop-color="#585858"/>
   <stop id="1G" offset="1" stop-color="#313131"/>
  </linearGradient>
  <linearGradient x1="31.02" y1="1051.78" x2="31.11" y2="1028.17" id="f" xlink:href="#U" gradientUnits="userSpaceOnUse" gradientTransform="translate(0,-1020.3622)"/>
  <linearGradient x1="31.02" y1="1021.04" x2="31.18" y2="1025.18" id="g" xlink:href="#U" gradientUnits="userSpaceOnUse" gradientTransform="translate(0,-1020.3622)"/>
  <radialGradient cx="23.559" cy="3.942" r="13" id="h" xlink:href="#e" gradientUnits="userSpaceOnUse" gradientTransform="matrix(0.95330955,-0.8761139,0.86867816,0.9469141,-9.7298141,32.872626)"/>
  <radialGradient cx="10.9" cy="18.832" r="4.418" id="i" xlink:href="#W" gradientUnits="userSpaceOnUse" gradientTransform="matrix(-1.2260117,0.93221432,-1.4259715,-1.447584,49.322664,45.452899)"/>
  <radialGradient cx="9.831" cy="22.72" r="4.418" id="j" xlink:href="#W" gradientUnits="userSpaceOnUse" gradientTransform="matrix(-1.3008567,1.2123246,-1.2585393,-1.0423927,50.427259,40.62382)"/>
  <radialGradient cx="9.403" cy="22.813" r="4.418" id="k" xlink:href="#d" gradientUnits="userSpaceOnUse" gradientTransform="matrix(-0.95619513,0.98642493,-1.0408789,-0.77881969,41.124128,36.802606)"/>
  <radialGradient cx="9.118" cy="22.2" r="1.311" id="l" xlink:href="#c" gradientUnits="userSpaceOnUse" gradientTransform="matrix(0.99985388,0.01709451,-0.08336016,4.8757155,1.8521058,-85.282891)"/>
  <radialGradient cx="8.884" cy="17.701" r="2.5" id="m" xlink:href="#b" gradientUnits="userSpaceOnUse" gradientTransform="matrix(-1.3166333,1.7974378,-1.2411523,-0.90915104,42.293245,17.440542)"/>
  <radialGradient cx="8.19" cy="26.97" r="4.418" id="n" xlink:href="#a" gradientUnits="userSpaceOnUse" gradientTransform="matrix(1.0000001,0,0,0.8785714,-8.8382161e-7,3.0157895)"/>
  <linearGradient x1="25.07" y1="17.892" x2="24.715" y2="31.611" id="o" xlink:href="#Y" gradientUnits="userSpaceOnUse"/>
  <radialGradient cx="15.576" cy="-3.594" r="16" id="p" xlink:href="#Z" gradientUnits="userSpaceOnUse" gradientTransform="matrix(-0.99803792,1.0326631,-1.0771434,-1.0410267,27.063123,-21.111992)"/>
  <radialGradient cx="8.438" cy="30.424" r="4.418" id="q" xlink:href="#X" gradientUnits="userSpaceOnUse" gradientTransform="matrix(1.0814418,-0.04770159,0.0501425,0.87746622,-2.1385341,3.4426559)"/>
  <radialGradient cx="8.633" cy="28.875" r="4.418" id="r" xlink:href="#W" gradientUnits="userSpaceOnUse" gradientTransform="matrix(0.7127093,0,0,0.8785714,2.2941941,3.0157895)"/>
  <radialGradient cx="8.563" cy="28.644" r="4.418" id="s" xlink:href="#V" gradientUnits="userSpaceOnUse" gradientTransform="matrix(1,0,0,0.8785714,0,3.0157895)"/>
  <linearGradient x1="10.925" y1="28.681" x2="12.348" y2="21.704" id="t" xlink:href="#U" gradientUnits="userSpaceOnUse"/>
  <linearGradient x1="11.09" y1="28.564" x2="11.916" y2="19.96" id="u" xlink:href="#U" gradientUnits="userSpaceOnUse"/>
 </defs>
 <rect width="32" height="32" rx="5" id="1" fill="url(#o)"/>
 <path d="m 5,1.4816 c -1.9834933,0 -3.53125,1.5477 -3.53125,3.5312 l 0,22 c 0,1.9835 1.5477567,3.5312 3.53125,3.5312 l 22,0 c 1.983493,0 3.53125,-1.5477 3.53125,-3.5312 l 0,-22 C 30.53125,3.0293 28.983493,1.4815 27,1.4816 l -22,0 z" id="2" opacity="0.2" fill="none" stroke="url(#f)"/>
 <path d="m 1,18 0,1 30,0 0,-1 -30,0 z" id="3" opacity="0.4"/>
 <path d="m 12.750191,24.835907 a 4.4183831,3.881865 0 1 1 -8.836766,0 4.4183831,3.881865 0 1 1 8.836766,0 z" transform="matrix(0.79214498,0,0,0.90162843,2.5176584,3.130526)" id="4" opacity="0.26" fill="#eeeeec"/>
 <path d="m 12.750191,24.835907 a 4.4183831,3.881865 0 1 1 -8.836766,0 4.4183831,3.881865 0 1 1 8.836766,0 z" transform="matrix(0.79214498,0,0,0.90162843,2.5176584,2.6302403)" id="5" fill="url(#q)"/>
 <path d="M 5,0 C 2.23,0 0,2.23 0,5 L 0,18 32,18 32,5 C 32,2.23 29.77,0 27,0 L 5,0 z" id="6" fill="url(#p)"/>
 <path d="m 12.750191,24.835907 a 4.4183831,3.881865 0 1 1 -8.836766,0 4.4183831,3.881865 0 1 1 8.836766,0 z" transform="matrix(0.41169138,0,0,0.46859185,16.382914,16.084086)" id="7" opacity="0.26" fill="#eeeeec"/>
 <path d="m 5,1.4816 c -1.9834933,0 -3.53125,1.5477 -3.53125,3.5312 l 0,22 c 0,1.9835 1.5477567,3.5312 3.53125,3.5312 l 22,0 c 1.983493,0 3.53125,-1.5477 3.53125,-3.5312 l 0,-22 C 30.53125,3.0293 28.983493,1.4815 27,1.4816 l -22,0 z" id="8" opacity="0.4" fill="none" stroke="url(#g)"/>
 <path d="m 12.750191,24.835907 a 4.4183831,3.881865 0 1 1 -8.836766,0 4.4183831,3.881865 0 1 1 8.836766,0 z" transform="matrix(0.41169138,0,0,0.46859185,21.531926,11.233393)" id="9" opacity="0.26" fill="#eeeeec"/>
 <path d="m 5,0.4816 c -2.5134381,0 -4.53125,2.0178 -4.53125,4.5312 l 0,22 c 0,2.5134 2.0178119,4.5312 4.53125,4.5312 l 22,0 c 2.513438,0 4.53125,-2.0178 4.53125,-4.5312 l 0,-22 C 31.53125,2.4994 29.513438,0.4816 27,0.4816 l -22,0 z" id="A" opacity="0.4" fill="none" stroke="#000"/>
 <path d="m 12.750191,24.835907 a 4.4183831,3.881865 0 1 1 -8.836766,0 4.4183831,3.881865 0 1 1 8.836766,0 z" transform="matrix(0.41169138,0,0,0.46859185,16.382914,15.568776)" id="B" fill="url(#r)"/>
 <path d="m 12.750191,24.835907 a 4.4183831,3.881865 0 1 1 -8.836766,0 4.4183831,3.881865 0 1 1 8.836766,0 z" transform="matrix(0.41169138,0,0,0.46859185,21.531926,10.839349)" id="C" fill="url(#s)"/>
 <path d="m 5.8463924,2.325568 20.3076936,0 L 27,16.325567 l -22.0000001,0 z" id="D" fill="url(#h)"/>
 <path d="m 12.750191,24.835907 a 4.4183831,3.881865 0 1 1 -8.836766,0 4.4183831,3.881865 0 1 1 8.836766,0 z" transform="matrix(0.79214498,0,0,0.90162843,2.5176584,1.7305272)" id="E" opacity="0.2"/>
 <path d="m 12.750191,24.835907 a 4.4183831,3.881865 0 1 1 -8.836766,0 4.4183831,3.881865 0 1 1 8.836766,0 z" transform="matrix(0.79214498,0,0,0.90162843,2.5176584,2.130694)" id="F" fill="url(#k)"/>
 <path d="m 12.750191,24.835907 a 4.4183831,3.881865 0 1 1 -8.836766,0 4.4183831,3.881865 0 1 1 8.836766,0 z" transform="matrix(0.41169138,0,0,0.46859185,16.382914,14.684086)" id="G" opacity="0.2"/>
 <path d="m 12.750191,24.835907 a 4.4183831,3.881865 0 1 1 -8.836766,0 4.4183831,3.881865 0 1 1 8.836766,0 z" transform="matrix(0.38401409,0,0,0.43708919,5.9181267,13.667947)" id="H" fill="url(#n)"/>
 <path d="m 12.750191,24.835907 a 4.4183831,3.881865 0 1 1 -8.836766,0 4.4183831,3.881865 0 1 1 8.836766,0 z" transform="matrix(0.41169138,0,0,0.46859185,21.531926,9.833393)" id="I" opacity="0.2"/>
 <path d="m 12.750191,24.835907 a 4.4183831,3.881865 0 1 1 -8.836766,0 4.4183831,3.881865 0 1 1 8.836766,0 z" transform="matrix(0.41169138,0,0,0.46859185,16.382914,15.084256)" id="J" fill="url(#j)"/>
 <path d="m 12.750191,24.835907 a 4.4183831,3.881865 0 1 1 -8.836766,0 4.4183831,3.881865 0 1 1 8.836766,0 z" transform="matrix(0.41169138,0,0,0.46859185,21.531926,10.233563)" id="K" fill="url(#i)"/>
 <rect width="2.622" height="6.992" x="7.807" y="18.15" id="L" fill="url(#l)"/>
 <path d="m 9.1173917,16.85044 c -1.380712,0 -2.5,1.119288 -2.5,2.5 0,0.130106 0.043341,0.250255 0.0625,0.375 0.00626,0.04073 -0.0082,0.08494 0,0.125 0.021668,0.127458 0.077105,0.260951 0.125,0.40625 0.012485,0.03165 0.017526,0.06275 0.03125,0.09375 0.1128304,0.31542 0.241283,0.66259 0.46875,1.0625 1.279898,2.25019 2.284977,2.264769 3.5937493,0.03125 0.248797,-0.42459 0.414973,-0.795157 0.53125,-1.125 0.09039,-0.256423 0.148045,-0.484648 0.15625,-0.6875 0.0061,-0.05278 0.02854,-0.102528 0.03125,-0.15625 -7.11e-4,-0.01061 9.72e-4,-0.0208 0,-0.03125 0.0012,-0.03194 0,-0.06151 0,-0.09375 0,-1.380712 -1.119288,-2.5 -2.4999993,-2.5 z" id="M" opacity="0.549" fill="#2e3436"/>
 <path d="m 6.375,3.875 -0.78125,12.875 20.8125,0 -0.78125,-12.875 -19.25,0 z" id="N" opacity="0.24" fill="none" stroke="#eeeeec"/>
 <path d="m 6.375,3.875 -0.78125,12.875 20.8125,0 -0.78125,-12.875 -19.25,0 z" transform="translate(0,-1)" id="O" fill="none" stroke="#1c1c1c"/>
 <path d="m 9.1173917,15.95082 c -1.380712,0 -2.5,1.119288 -2.5,2.5 0,0.130106 0.043341,0.250255 0.0625,0.375 0.00626,0.04073 -0.0082,0.08494 0,0.125 0.021668,0.127458 0.077105,0.260951 0.125,0.40625 0.012485,0.03165 0.017526,0.06275 0.03125,0.09375 0.1128304,0.31542 0.241283,0.66259 0.46875,1.0625 1.279898,2.25019 2.284977,2.264769 3.5937493,0.03125 0.248797,-0.42459 0.414973,-0.795157 0.53125,-1.125 0.09039,-0.256423 0.148045,-0.484648 0.15625,-0.6875 0.0061,-0.05278 0.02854,-0.102528 0.03125,-0.15625 -7.11e-4,-0.01061 9.72e-4,-0.0208 0,-0.03125 0.0012,-0.03194 0,-0.06151 0,-0.09375 0,-1.380712 -1.119288,-2.5 -2.4999993,-2.5 z" id="P" fill="url(#m)"/>
 <path d="m 9.125,16.34375 c -1.1530571,0 -2.09375,0.940693 -2.09375,2.09375 0,0.03656 0.035032,0.133653 0.0625,0.3125 0.028009,0.182235 0.02352,0.208654 0,0.09375 a 0.42128195,0.42128195 0 0 1 0,0.03125 c 0.00912,0.05365 0.076615,0.167765 0.125,0.3125 0.00422,0.01264 -0.00435,0.01806 0,0.03125 0.010179,0.0296 0.00869,0.08213 0,0.0625 a 0.42128195,0.42128195 0 0 1 0.03125,0 c 0.1116966,0.31225 0.2281373,0.631919 0.4375,1 0.3083569,0.542123 0.5963486,0.949973 0.84375,1.1875 0.2474014,0.237527 0.4119599,0.311 0.5625,0.3125 0.1505401,0.0015 0.3438899,-0.07999 0.59375,-0.3125 0.2498601,-0.232513 0.528548,-0.618334 0.84375,-1.15625 0.236111,-0.40294 0.392672,-0.726792 0.5,-1.03125 0.08301,-0.235481 0.15075,-0.457771 0.15625,-0.59375 a 0.42128195,0.42128195 0 0 1 0,-0.03125 c 0.0086,-0.07403 0.02568,-0.04316 0.03125,-0.0625 -0.0049,-0.07281 -0.0055,-0.09059 0,-0.03125 a 0.42128195,0.42128195 0 0 1 0,-0.03125 0.42128195,0.42128195 0 0 1 0,-0.03125 c 4.38e-4,-0.01166 0,-0.01981 0,-0.0625 0,-1.153057 -0.940694,-2.09375 -2.09375,-2.09375 z" id="Q" opacity="0.2" fill="none" stroke="#1c1c1c"/>
 <path d="M 6.8639563,18.104 C 6.9197603,17.534794 8.6160976,14.938054 11.149744,17.300415 8.8403801,16.720573 7.7460338,17.378489 6.8639563,18.104 z" id="R" opacity="0.51" fill="#eeeeec"/>
 <path d="m 8.34375,21.8125 c -2.0365608,0 -3.59375,1.417434 -3.59375,3.03125 0,1.613816 1.5571892,3.03125 3.59375,3.03125 2.036561,0 3.5625,-1.409141 3.5625,-3.03125 0,-1.622109 -1.525939,-3.03125 -3.5625,-3.03125 z" transform="matrix(0.41169138,0,0,0.46859185,21.531926,10.233563)" id="S" opacity="0.5" fill="none" stroke="url(#u)" stroke-width="2.138"/>
 <path d="m 8.34375,22.15625 c -1.8827016,0 -3.25,1.275737 -3.25,2.6875 0,1.411763 1.3672984,2.6875 3.25,2.6875 1.882702,0 3.21875,-1.264282 3.21875,-2.6875 0,-1.423218 -1.336048,-2.6875 -3.21875,-2.6875 z" transform="matrix(0.41169138,0,0,0.46859185,16.382914,15.084256)" id="T" opacity="0.5" fill="none" stroke="url(#t)" stroke-width="2.366"/>
</svg>
